<svg width="108" height="108" viewBox="0 0 108 108" fill="none" xmlns="http://www.w3.org/2000/svg">
<path d="M108 53.5098C108 83.0617 84.0435 107.018 54.4916 107.018C24.9397 107.018 0.983204 83.0617 0.983204 53.5098C0.983204 23.958 24.9397 0.00146484 54.4916 0.00146484C84.0435 0.00146484 108 23.958 108 53.5098Z" fill="white"/>
<path d="M98 56.9798C98 57.6398 97.7866 58.1898 97.36 58.6298C96.9333 59.0764 96.4 59.2998 95.76 59.2998C95.12 59.2998 94.5866 59.0764 94.16 58.6298C93.7333 58.1898 93.52 57.6398 93.52 56.9798V55.3398H91V54.4698H98V56.9798ZM94.37 56.9298C94.37 57.3564 94.5 57.7064 94.76 57.9798C95.0266 58.2598 95.36 58.3998 95.76 58.3998C96.16 58.3998 96.49 58.2598 96.75 57.9798C97.0166 57.7064 97.15 57.3564 97.15 56.9298V55.3398H94.37V56.9298Z" fill="#959A9D"/>
<path d="M96.6083 64.9705C96.416 65.9789 95.9332 66.7488 95.16 67.28C94.3855 67.8177 93.5006 67.9917 92.5052 67.8018C91.5098 67.612 90.751 67.1245 90.2289 66.3394C89.7055 65.5609 89.5399 64.6674 89.7323 63.6589L90.1688 61.3702L97.0449 62.6817L96.6083 64.9705ZM90.5434 63.7831C90.396 64.5558 90.5243 65.2352 90.9283 65.8213C91.3324 66.4074 91.9142 66.7729 92.6738 66.9178C93.1781 67.0139 93.6512 66.9888 94.0931 66.8423C94.535 66.6959 94.9054 66.4442 95.2043 66.0872C95.5096 65.7314 95.7111 65.2981 95.8085 64.7873L96.0764 63.3827L90.8113 62.3784L90.5434 63.7831Z" fill="#959A9D"/>
<path d="M91.5737 75.2286L92.8076 72.4285L90.6938 71.4969L89.5647 74.0592L88.8143 73.7285L89.9434 71.1663L87.1615 69.9404L87.5124 69.1443L93.918 71.967L92.3332 75.5633L91.5737 75.2286Z" fill="#959A9D"/>
<path d="M83.2693 80.1966L84.0611 80.9013L83.4162 81.6259L82.6244 80.9212L83.2693 80.1966Z" fill="#959A9D"/>
<path d="M74.7477 92.1978C74.1909 92.5521 73.6123 92.6673 73.012 92.5435C72.4061 92.4233 71.9314 92.0933 71.5878 91.5533C71.2443 91.0133 71.1464 90.4435 71.2942 89.8437C71.4364 89.2475 71.7859 88.7723 72.3428 88.418L73.7264 87.5376L72.3736 85.4115L73.1077 84.9445L76.8654 90.8503L74.7477 92.1978ZM72.8412 89.1083C72.4813 89.3373 72.2557 89.6349 72.1647 90.001C72.0716 90.3763 72.1324 90.7327 72.3472 91.0701C72.5619 91.4076 72.8572 91.6109 73.233 91.6799C73.6067 91.7582 73.9736 91.6828 74.3336 91.4538L75.6751 90.6002L74.1827 88.2547L72.8412 89.1083Z" fill="#959A9D"/>
<path d="M67.1877 95.2812C66.232 95.6562 65.3233 95.6583 64.4616 95.2875C63.5937 94.9191 62.9747 94.2632 62.6045 93.3199C62.2343 92.3766 62.2421 91.4748 62.6278 90.6144C63.0072 89.7565 63.6748 89.14 64.6306 88.765L66.7995 87.9138L69.3567 94.43L67.1877 95.2812ZM64.958 89.5173C64.2257 89.8047 63.7194 90.2756 63.4391 90.9299C63.1587 91.5842 63.1598 92.2713 63.4423 92.9911C63.6298 93.469 63.9033 93.8558 64.2629 94.1516C64.6225 94.4473 65.0329 94.6264 65.4943 94.6889C65.9581 94.7575 66.432 94.6969 66.9161 94.5069L68.2472 93.9845L66.2892 88.995L64.958 89.5173Z" fill="#959A9D"/>
<path d="M55.8045 96.4627L58.8317 96.0165L58.4949 93.7312L55.7248 94.1395L55.6052 93.3283L58.3753 92.92L57.932 89.9125L58.7927 89.7856L59.8135 96.7108L55.9255 97.2839L55.8045 96.4627Z" fill="#959A9D"/>
<path d="M47.0457 92.0535L46.867 93.0983L45.9109 92.9348L46.0896 91.89L47.0457 92.0535Z" fill="#959A9D"/>
<path d="M32.4218 91.1866C31.8271 90.9004 31.424 90.4696 31.2126 89.8944C30.9951 89.3162 31.0252 88.7388 31.3027 88.1621C31.5803 87.5854 32.0128 87.2017 32.6003 87.0109C33.1818 86.8173 33.7699 86.8636 34.3646 87.1498L35.8424 87.861L36.9352 85.5903L37.7192 85.9676L34.6835 92.2751L32.4218 91.1866ZM34.0411 87.9374C33.6566 87.7523 33.2849 87.7177 32.9258 87.8334C32.5579 87.9523 32.2872 88.192 32.1137 88.5524C31.9402 88.9128 31.9233 89.2709 32.0628 89.6266C32.1935 89.9854 32.451 90.2573 32.8355 90.4424L34.2682 91.1319L35.4738 88.6269L34.0411 87.9374Z" fill="#959A9D"/>
<path d="M25.822 86.4122C24.9985 85.7992 24.5163 85.029 24.3756 84.1015C24.2295 83.17 24.459 82.2978 25.064 81.4849C25.669 80.672 26.4387 80.2019 27.3729 80.0745C28.3017 79.9431 29.178 80.1839 30.0015 80.7969L31.8706 82.1881L27.6911 87.8034L25.822 86.4122ZM29.536 81.4726C28.9049 81.0029 28.2376 80.822 27.534 80.9299C26.8304 81.0378 26.2477 81.4019 25.786 82.0223C25.4795 82.4341 25.2958 82.8708 25.2348 83.3323C25.1738 83.7939 25.2387 84.237 25.4296 84.6616C25.6165 85.0916 25.9186 85.4618 26.3357 85.7723L27.4828 86.6261L30.6831 82.3264L29.536 81.4726Z" fill="#959A9D"/>
<path d="M18.7718 77.3925L20.7558 79.7222L22.5145 78.2245L20.6991 76.0928L21.3234 75.5611L23.1388 77.6928L25.4532 75.7218L26.0173 76.3842L20.688 80.9227L18.1399 77.9307L18.7718 77.3925Z" fill="#959A9D"/>
<path d="M17.9346 67.8244L16.9552 68.23L16.5841 67.3338L17.5634 66.9282L17.9346 67.8244Z" fill="#959A9D"/>
<path d="M10.8696 54.9752C10.796 54.3193 10.9467 53.7489 11.3216 53.2641C11.6957 52.7726 12.2008 52.4912 12.8368 52.4198C13.4729 52.3484 14.0278 52.5108 14.5016 52.9071C14.9747 53.2968 15.248 53.8196 15.3217 54.4754L15.5046 56.1052L18.0089 55.8241L18.1059 56.6887L11.1496 57.4695L10.8696 54.9752ZM14.4826 54.6199C14.435 54.1959 14.2667 53.8626 13.9779 53.62C13.6816 53.3715 13.3347 53.2696 12.9372 53.3142C12.5397 53.3588 12.2274 53.5347 12.0003 53.842C11.7658 54.1434 11.6723 54.5061 11.7199 54.9301L11.8973 56.5101L14.6599 56.2L14.4826 54.6199Z" fill="#959A9D"/>
<path d="M11.3936 46.6563C11.4766 45.633 11.8741 44.8159 12.5858 44.2048C13.2982 43.5871 14.1593 43.3192 15.1693 43.4012C16.1793 43.4832 16.986 43.8864 17.5894 44.6109C18.1933 45.3288 18.4537 46.1994 18.3706 47.2227L18.1821 49.5451L11.2051 48.9787L11.3936 46.6563ZM17.5509 47.1863C17.6145 46.4022 17.4141 45.7405 16.9495 45.2011C16.485 44.6618 15.8673 44.3608 15.0965 44.2982C14.5849 44.2567 14.1172 44.3324 13.6935 44.5254C13.2699 44.7185 12.9286 45.0085 12.6698 45.3955C12.4043 45.7819 12.2505 46.2343 12.2085 46.7526L12.0928 48.1779L17.4352 48.6116L17.5509 47.1863Z" fill="#959A9D"/>
<path d="M15.2507 36.0042L14.3281 38.9218L16.5306 39.6183L17.3748 36.9486L18.1567 37.1958L17.3125 39.8655L20.211 40.7821L19.9487 41.6116L13.2744 39.5011L14.4593 35.7539L15.2507 36.0042Z" fill="#959A9D"/>
<path d="M22.9428 30.164L22.081 29.5468L22.6459 28.7582L23.5076 29.3755L22.9428 30.164Z" fill="#959A9D"/>
<path d="M30.0653 17.3393C30.5816 16.928 31.1447 16.7522 31.7547 16.8118C32.3699 16.8672 32.8769 17.1452 33.2756 17.6458C33.6744 18.1464 33.832 18.7027 33.7485 19.3147C33.6702 19.9226 33.3729 20.4321 32.8567 20.8434L31.5739 21.8652L33.1441 23.8363L32.4636 24.3783L28.1021 18.9032L30.0653 17.3393ZM32.288 20.2097C32.6217 19.9438 32.8145 19.6241 32.8662 19.2504C32.9191 18.8674 32.8209 18.5194 32.5717 18.2066C32.3225 17.8937 32.0073 17.7228 31.6263 17.6939C31.2464 17.6556 30.8896 17.7694 30.5558 18.0353L29.3122 19.026L31.0443 21.2004L32.288 20.2097Z" fill="#959A9D"/>
<path d="M37.1885 13.4475C38.0982 12.9717 39.0014 12.8717 39.8981 13.1475C40.8006 13.4203 41.4867 14.0056 41.9564 14.9036C42.426 15.8015 42.5155 16.6989 42.2247 17.5958C41.9399 18.4896 41.3426 19.1744 40.4329 19.6503L38.3682 20.7302L35.1239 14.5275L37.1885 13.4475ZM40.0262 18.9376C40.7233 18.573 41.1759 18.0503 41.3842 17.3696C41.5924 16.6889 41.5173 16.0059 41.1589 15.3207C40.9209 14.8658 40.6073 14.5107 40.218 14.2554C39.8287 14.0002 39.4013 13.8663 38.9359 13.854C38.4674 13.8357 38.0027 13.947 37.542 14.1881L36.2748 14.8508L38.7591 19.6004L40.0262 18.9376Z" fill="#959A9D"/>
<path d="M48.4438 10.9771L45.4814 11.7438L46.0602 13.9801L48.7709 13.2786L48.9764 14.0724L46.2657 14.774L47.0274 17.717L46.1851 17.935L44.4312 11.1583L48.2359 10.1736L48.4438 10.9771Z" fill="#959A9D"/>
<path d="M57.5918 14.3861L57.6572 13.3281L58.6253 13.388L58.5599 14.4459L57.5918 14.3861Z" fill="#959A9D"/>
<path d="M72.1876 13.6043C72.8097 13.8245 73.257 14.2091 73.5295 14.7581C73.8082 15.3094 73.8408 15.8867 73.6272 16.49C73.4137 17.0933 73.0252 17.5216 72.4618 17.7747C71.9046 18.0302 71.315 18.0477 70.6928 17.8275L69.1468 17.2803L68.3059 19.6559L67.4858 19.3656L69.8214 12.7668L72.1876 13.6043ZM70.9292 17.0096C71.3315 17.1519 71.7048 17.1462 72.0492 16.9923C72.4021 16.8343 72.6453 16.5668 72.7788 16.1897C72.9123 15.8126 72.8904 15.4548 72.7132 15.1163C72.5445 14.7737 72.259 14.5312 71.8568 14.3889L70.3579 13.8584L69.4304 16.479L70.9292 17.0096Z" fill="#959A9D"/>
<path d="M79.3815 17.6705C80.2655 18.1927 80.8266 18.9074 81.0649 19.8148C81.309 20.7255 81.1733 21.6171 80.6579 22.4895C80.1425 23.362 79.4271 23.9111 78.5116 24.1369C77.602 24.3661 76.7051 24.2196 75.8212 23.6974L73.8151 22.5123L77.3754 16.4854L79.3815 17.6705ZM76.2124 22.9761C76.8897 23.3762 77.5725 23.4853 78.2607 23.3034C78.9489 23.1215 79.4897 22.6976 79.883 22.0318C80.1441 21.5898 80.2805 21.1361 80.2922 20.6707C80.3038 20.2053 80.1923 19.7716 79.9574 19.3696C79.7259 18.9618 79.3864 18.6257 78.9386 18.3612L77.7074 17.6339L74.9812 22.2488L76.2124 22.9761Z" fill="#959A9D"/>
<path d="M87.2339 25.7253L85.0082 23.6253L83.4229 25.3055L85.4595 27.2271L84.8968 27.8235L82.8602 25.902L80.7739 28.1131L80.1411 27.5161L84.9449 22.4246L87.8035 25.1216L87.2339 25.7253Z" fill="#959A9D"/>
<path d="M91.3099 38.4606L92.24 37.9521L92.7054 38.8031L91.7753 39.3117L91.3099 38.4606Z" fill="#959A9D"/>
<path d="M43.98 46C45.3933 46 46.5733 46.46 47.52 47.38C48.4667 48.2867 48.94 49.4333 48.94 50.82C48.94 52.1933 48.4667 53.34 47.52 54.26C46.5733 55.1667 45.3933 55.62 43.98 55.62H41.64V60H38.6V46H43.98ZM43.86 52.82C44.46 52.82 44.94 52.6333 45.3 52.26C45.6733 51.8867 45.86 51.4067 45.86 50.82C45.86 50.2333 45.6733 49.7533 45.3 49.38C44.94 48.9933 44.46 48.8 43.86 48.8H41.64V52.82H43.86ZM56.3414 46C58.3947 46 60.0881 46.66 61.4214 47.98C62.7681 49.2867 63.4414 50.9533 63.4414 52.98C63.4414 55.0067 62.7681 56.6867 61.4214 58.02C60.0881 59.34 58.3947 60 56.3414 60H51.0414V46H56.3414ZM56.2614 57.18C57.4614 57.18 58.4414 56.7867 59.2014 56C59.9614 55.2133 60.3414 54.2067 60.3414 52.98C60.3414 51.7533 59.9614 50.7533 59.2014 49.98C58.4414 49.2067 57.4614 48.82 56.2614 48.82H54.0814V57.18H56.2614ZM74.2256 48.82H68.9056V51.9H73.7056V54.64H68.9056V60H65.8656V46H74.2256V48.82Z" fill="#43AAFF"/>
</svg>
